<svg width="18" height="18" viewBox="0 0 18 18" fill="none" xmlns="http://www.w3.org/2000/svg">
<path d="M3.22268 16.5313C3.13493 17.0427 3.62767 17.4424 4.06191 17.2143L9.00057 14.6156L13.9381 17.2143C14.3723 17.4424 14.8651 17.0427 14.7773 16.5324L13.8436 11.0839L17.8058 7.21805C18.177 6.85635 17.9858 6.19515 17.4885 6.12373L11.9784 5.322L9.52144 0.337676C9.47463 0.23664 9.40079 0.151277 9.30849 0.0915035C9.21619 0.03173 9.10922 0 9.00001 0C8.8908 0 8.78383 0.03173 8.69153 0.0915035C8.59923 0.151277 8.52538 0.23664 8.47858 0.337676L6.02163 5.32315L0.511476 6.12488C0.0153598 6.1963 -0.177012 6.8575 0.193107 7.2192L4.15641 11.085L3.22268 16.5336V16.5313ZM8.7407 13.3439L4.59403 15.5256L5.37476 10.9675C5.39305 10.8626 5.3859 10.7547 5.35392 10.6532C5.32195 10.5518 5.26614 10.46 5.19139 10.3858L1.9222 7.19501L6.48062 6.53151C6.57501 6.51691 6.66454 6.47911 6.74154 6.42133C6.81854 6.36355 6.88071 6.28752 6.92273 6.19976L8.99832 1.98606L11.0762 6.19976C11.1182 6.28752 11.1804 6.36355 11.2574 6.42133C11.3344 6.47911 11.4239 6.51691 11.5183 6.53151L16.0767 7.19386L12.8075 10.3847C12.7326 10.4589 12.6767 10.551 12.6447 10.6526C12.6127 10.7543 12.6056 10.8624 12.6241 10.9675L13.4049 15.5256L9.25819 13.3439C9.17801 13.3016 9.0891 13.2795 8.99888 13.2795C8.90867 13.2795 8.81976 13.3016 8.73958 13.3439H8.7407Z" fill="#C92EFF"/>
</svg>
