<svg width="21" height="21" viewBox="0 0 21 21" fill="none" xmlns="http://www.w3.org/2000/svg">
<g clip-path="url(#clip0_3_3568)">
<path fill-rule="evenodd" clip-rule="evenodd" d="M11.3347 4.59375C11.3347 4.4197 11.2656 4.25278 11.1425 4.12971C11.0195 4.00664 10.8525 3.9375 10.6785 3.9375H1.96875C1.44661 3.9375 0.945846 4.14492 0.576634 4.51413C0.207421 4.88335 0 5.38411 0 5.90625L0 19.0312C0 19.5534 0.207421 20.0542 0.576634 20.4234C0.945846 20.7926 1.44661 21 1.96875 21H15.0938C15.6159 21 16.1167 20.7926 16.4859 20.4234C16.8551 20.0542 17.0625 19.5534 17.0625 19.0312V10.3215C17.0625 10.1475 16.9934 9.98053 16.8703 9.85746C16.7472 9.73439 16.5803 9.66525 16.4062 9.66525C16.2322 9.66525 16.0653 9.73439 15.9422 9.85746C15.8191 9.98053 15.75 10.1475 15.75 10.3215V19.0312C15.75 19.2053 15.6809 19.3722 15.5578 19.4953C15.4347 19.6184 15.2678 19.6875 15.0938 19.6875H1.96875C1.7947 19.6875 1.62778 19.6184 1.50471 19.4953C1.38164 19.3722 1.3125 19.2053 1.3125 19.0312V5.90625C1.3125 5.7322 1.38164 5.56528 1.50471 5.44221C1.62778 5.31914 1.7947 5.25 1.96875 5.25H10.6785C10.8525 5.25 11.0195 5.18086 11.1425 5.05779C11.2656 4.93472 11.3347 4.7678 11.3347 4.59375Z" fill="black"/>
<path fill-rule="evenodd" clip-rule="evenodd" d="M21 0.65625C21 0.482202 20.9308 0.315282 20.8078 0.192211C20.6847 0.0691404 20.5178 0 20.3437 0L13.7812 0C13.6072 0 13.4403 0.0691404 13.3172 0.192211C13.1941 0.315282 13.125 0.482202 13.125 0.65625C13.125 0.830298 13.1941 0.997218 13.3172 1.12029C13.4403 1.24336 13.6072 1.3125 13.7812 1.3125H18.7595L8.0666 12.0041C8.00558 12.0651 7.95718 12.1376 7.92416 12.2173C7.89114 12.297 7.87415 12.3825 7.87415 12.4687C7.87415 12.555 7.89114 12.6405 7.92416 12.7202C7.95718 12.7999 8.00558 12.8724 8.0666 12.9334C8.12762 12.9944 8.20005 13.0428 8.27977 13.0758C8.35949 13.1088 8.44494 13.1258 8.53122 13.1258C8.61751 13.1258 8.70296 13.1088 8.78268 13.0758C8.8624 13.0428 8.93483 12.9944 8.99585 12.9334L19.6875 2.24044V7.21875C19.6875 7.3928 19.7566 7.55972 19.8797 7.68279C20.0028 7.80586 20.1697 7.875 20.3437 7.875C20.5178 7.875 20.6847 7.80586 20.8078 7.68279C20.9308 7.55972 21 7.3928 21 7.21875V0.65625Z" fill="black"/>
</g>
<defs>
<clipPath id="clip0_3_3568">
<rect width="21" height="21" fill="white"/>
</clipPath>
</defs>
</svg>
